# xmcd
# 
# Track frame offsets:
#     150
#     13070
#     36625
#     62300
#     86302
#     105075
#     129755
#     148420
#     159892
#     183065
# 
# Disc length: 2632
# 
# Revision: 1
# Processed by: cddbd v1.5.2PL0 Copyright (c) Steve Scherf et al.
# Submitted via: BonkEnc v1.0.8
# 
DISCID=6f0a460a
DTITLE=jaja - jaja
DYEAR=2004
DGENRE=Jazz
TTITLE0=朝陽の中へ
TTITLE1=I Miss You
TTITLE2=A Bird in the Cage
TTITLE3=Forever
TTITLE4=Old Times
TTITLE5=Always
TTITLE6=Desperado
TTITLE7=そっと抱きしめて
TTITLE8=悲しみの向うに
TTITLE9=Hand in Hand
EXTD=YEAR: 2004
EXTT0=
EXTT1=
EXTT2=
EXTT3=
EXTT4=
EXTT5=
EXTT6=
EXTT7=
EXTT8=
EXTT9=
PLAYORDER=
